<?xml version="1.0" encoding="UTF-8"?>
<svg width="72px" height="72px" viewBox="0 0 72 72" version="1.1" xmlns="http://www.w3.org/2000/svg" xmlns:xlink="http://www.w3.org/1999/xlink">
    <!-- Generator: sketchtool 50.2 (55047) - http://www.bohemiancoding.com/sketch -->
    <title>E7534B39-54CA-4506-A591-D570D07A0A6C</title>
    <desc>Created with sketchtool.</desc>
    <defs></defs>
    <g id="Page-1" stroke="none" stroke-width="1" fill="none" fill-rule="evenodd">
        <g id="Gator1" transform="translate(-1319.000000, -2262.000000)">
            <g id="Features-Section" transform="translate(410.000000, 1767.000000)">
                <g id="color-icon_support" transform="translate(908.000000, 495.000000)">
                    <path d="M53.4215,3.9664 C48.4965,1.4364 42.9175,0.0004 36.9995,0.0004 C17.1175,0.0004 0.9995,16.1174 0.9995,36.0004 C0.9995,48.1634 7.0385,58.9094 16.2745,65.4264 C18.1935,66.7814 20.2505,67.9514 22.4205,68.9144 C26.8785,70.8924 31.8085,72.0004 36.9995,72.0004 C56.8825,72.0004 72.9995,55.8824 72.9995,36.0004 C72.9995,24.7244 67.8135,14.6644 59.6995,8.0634 C57.7645,6.4884 55.6595,5.1164 53.4215,3.9664 Z" id="Fill-1" fill="#F9CF8C"></path>
                    <path d="M37.2897157,5 C21.1396827,5 8,18.2162411 8,34.4617357 C8,39.421016 9.2636855,44.3330381 11.6577882,48.6883581 L11.6577882,51.5815079 C11.6577882,53.6240093 13.3193882,55.2856092 15.3618896,55.2856092 L21.3145382,55.2856092 C23.3560945,55.2856092 25.0176944,53.6240093 25.0176944,51.5815079 L25.0176944,34.8813889 C25.0176944,32.8388875 23.3560945,31.1772876 21.3145382,31.1772876 L15.6577262,31.1772876 C17.2474936,20.5356758 26.471358,12.4053671 37.2897157,12.4053671 C48.1137444,12.4053671 57.3338282,20.5337855 58.9235955,31.1772876 L53.2185801,31.1772876 C51.1751335,31.1772876 49.5144788,32.8388875 49.5144788,34.8813889 L49.5144788,51.5815079 C49.5144788,53.4841249 50.9549101,55.0559342 52.8036527,55.2629253 C50.192162,57.7893511 46.6685872,59.6447098 42.7707271,60.5114261 C42.0117596,59.8025524 41.0070493,59.3961315 39.9607518,59.3961315 L35.1706559,59.3961315 C32.8937537,59.3961315 31.0421756,61.2477095 31.0421756,63.5246118 C31.0421756,65.8015141 32.8937537,67.6530922 35.1706559,67.6530922 L39.9607518,67.6530922 C41.5561901,67.6530922 42.9890602,66.7221048 43.6686337,65.3156994 C50.197833,63.9026778 55.7639092,60.2864768 59.1107382,55.2856092 L59.1712288,55.2856092 C61.212785,55.2856092 62.8734397,53.6240093 62.8734397,51.5815079 L62.8734397,48.7819294 C65.2996781,44.4048707 66.5803766,39.460713 66.5803766,34.4617357 C66.5803766,18.2162411 53.4406938,5 37.2897157,5 M37.2897157,6.18145615 C52.7885301,6.18145615 65.3989204,18.8674597 65.3989204,34.4617357 C65.3989204,39.3822643 64.112551,44.2148925 61.6919836,48.4728605 L61.6919836,51.5815079 C61.6919836,52.974681 60.5634567,54.1041531 59.1712288,54.1041531 L58.4680261,54.1041531 C55.2960526,59.1900855 49.5976533,62.981142 42.7953014,64.2883051 C42.4569323,65.5415938 41.3208441,66.4716361 39.9607518,66.4716361 L35.1706559,66.4716361 C33.5459175,66.4716361 32.2236317,65.1493503 32.2236317,63.5246118 C32.2236317,61.9008185 33.5459175,60.5775876 35.1706559,60.5775876 L39.9607518,60.5775876 C40.9427781,60.5775876 41.8085492,61.0652927 42.3444577,61.8072472 C47.8273594,60.7524431 52.4945838,57.9292355 55.4151434,54.1041531 L53.2185801,54.1041531 C51.8244618,54.1041531 50.6959349,52.974681 50.6959349,51.5815079 L50.6959349,34.8813889 C50.6959349,33.4882158 51.8244618,32.3587438 53.2185801,32.3587438 L59.1712288,32.3587438 C59.5691432,32.3587438 59.9415382,32.4598764 60.2761265,32.6252803 C59.3432488,20.668944 49.3944428,11.223911 37.2897157,11.223911 C25.1972757,11.223911 15.2531956,20.6538214 14.3070855,32.5988157 C14.6284416,32.4475893 14.9847688,32.3587438 15.3618896,32.3587438 L21.3145382,32.3587438 C22.7067662,32.3587438 23.8362382,33.4882158 23.8362382,34.8813889 L23.8362382,51.5815079 C23.8362382,52.974681 22.7067662,54.1041531 21.3145382,54.1041531 L15.3618896,54.1041531 C13.9687165,54.1041531 12.8392444,52.974681 12.8392444,51.5815079 L12.8392444,48.3821247 C10.4517578,44.1458955 9.18145615,39.3491835 9.18145615,34.4617357 C9.18145615,18.8674597 21.7918465,6.18145615 37.2897157,6.18145615" id="Fill-4" stroke="#FF9D00" stroke-width="0.1" fill="#FF9D00"></path>
                    <path d="M27.0821518,20.1296181 L26.4709751,21.3677825 L25.8433194,22.6393363 L25.5832576,22.6771635 L24.4397311,22.8434946 L23.0742076,23.0424631 L24.0628175,24.0059898 L25.0778693,24.9966804 L25.0333852,25.2556339 L24.8377888,26.3942503 L24.6050148,27.7543701 L25.8267618,27.1121488 L27.0820443,26.4520233 L27.3147049,26.5742614 L28.3384107,27.1121087 L29.5598697,27.7541786 L29.3265792,26.3936808 L29.0863717,24.9965317 L29.2746711,24.8129613 L30.102683,24.0057442 L31.090989,23.0425138 L29.7246955,22.8435125 L28.3209842,22.6393363 L27.6933289,21.3677833 L27.0821518,20.1296181 Z M28.2005551,22.8056506 L30.7011605,23.1686417 L28.8916068,24.9324861 L29.3191003,27.4235095 L27.0821518,26.2472295 L24.8452032,27.4235095 L25.2726967,24.9324861 L23.4631431,23.1686417 L25.9637485,22.8056506 L27.0821518,20.5392709 L28.2005551,22.8056506 Z" id="Fill-6" stroke="#FF9D00"></path>
                    <path d="M38.0821518,20.1296181 L37.4709751,21.3677825 L36.8433194,22.6393363 L36.5832576,22.6771635 L35.4397311,22.8434946 L34.0742076,23.0424631 L35.0628175,24.0059898 L36.0778693,24.9966804 L36.0333852,25.2556339 L35.8377888,26.3942503 L35.6050148,27.7543701 L36.8267618,27.1121488 L38.0820443,26.4520233 L38.3147049,26.5742614 L39.3384107,27.1121087 L40.5598697,27.7541786 L40.3265792,26.3936808 L40.0863717,24.9965317 L40.2746711,24.8129613 L41.102683,24.0057442 L42.090989,23.0425138 L40.7246955,22.8435125 L39.3209842,22.6393363 L38.6933289,21.3677833 L38.0821518,20.1296181 Z M39.2005551,22.8056506 L41.7011605,23.1686417 L39.8916068,24.9324861 L40.3191003,27.4235095 L38.0821518,26.2472295 L35.8452032,27.4235095 L36.2726967,24.9324861 L34.4631431,23.1686417 L36.9637485,22.8056506 L38.0821518,20.5392709 L39.2005551,22.8056506 Z" id="Fill-8" stroke="#FF9D00"></path>
                    <path d="M48.0821518,20.1296181 L47.4709751,21.3677825 L46.8433194,22.6393363 L46.5832576,22.6771635 L45.4397311,22.8434946 L44.0742076,23.0424631 L45.0628175,24.0059898 L46.0778693,24.9966804 L46.0333852,25.2556339 L45.8377888,26.3942503 L45.6050148,27.7543701 L46.8267618,27.1121488 L48.0820443,26.4520233 L48.3147049,26.5742614 L49.3384107,27.1121087 L50.5598697,27.7541786 L50.3265792,26.3936808 L50.0863717,24.9965317 L50.2746711,24.8129613 L51.102683,24.0057442 L52.090989,23.0425138 L50.7246955,22.8435125 L49.3209842,22.6393363 L48.6933289,21.3677833 L48.0821518,20.1296181 Z M49.2005551,22.8056506 L51.7011605,23.1686417 L49.8916068,24.9324861 L50.3191003,27.4235095 L48.0821518,26.2472295 L45.8452032,27.4235095 L46.2726967,24.9324861 L44.4631431,23.1686417 L46.9637485,22.8056506 L48.0821518,20.5392709 L49.2005551,22.8056506 Z" id="Fill-10" stroke="#FF9D00"></path>
                </g>
            </g>
        </g>
    </g>
</svg>